:SAMPLES-PER-SECOND 30
:FULLY-SPECIFIED
:DEGREES
248
root  24.2728 39.2696 -33.3514 4.26016 -83.173 -8.09414
RightUpLeg  -21.2277 -9.06371 -4.4728
RightLeg  8.19489 2.12542 1.89613
RightFoot  5.69234 -0.982421 6.81696
RightToes  -5.8209e-011 0 -3.6325e-017
Spine  8.55311 -2.20457 -2.89735
Spine1  6.82364 -3.03144 2.00159
HEad  50.1499 5.82101 -175.633
LeftShoulder1  7.83294 -11.3501 -45.9796
LeftArm  -1.12929 -7.00614 -30.1838
LeftForeArm  34.2066 -39.9724 -7.20488
LeftHand  -0.244104 0.0205437 5.32207
RightShoulder  5.32787 8.40104 38.6806
RightArm  1.87567 -20.3597 33.3434
RightForeArm  16.7027 13.8066 6.49183
RightHand  -0.156109 -3.00268 -7.00268
LeftUpLeg  10.3832 4.26673 -5.74695
LeftLeg  9.91319 10.0897 -3.67708
LeftFoot  -18.338 0.547032 7.14378
LeftToes  1.76439e-010 -1.07097e-011 2.32476e-011
249
root  22.6672 39.0175 -33.4495 0.454285 -82.3485 -4.2127
RightUpLeg  -19.5549 -6.98931 -5.78043
RightLeg  -2.65569 -3.98807 4.94902
RightFoot  4.78833 -1.14665 8.31254
RightToes  -5.8209e-011 0 -3.6325e-017
Spine  8.20477 -2.34936 -4.05928
Spine1  6.48057 -3.50741 3.43352
HEad  49.6047 5.65533 -175.639
LeftShoulder1  7.73067 -11.2169 -45.783
LeftArm  -1.47177 -8.51579 -29.7731
LeftForeArm  34.7351 -41.22 -7.54562
LeftHand  -0.244104 0.0205437 5.32207
RightShoulder  5.26182 8.27093 38.6167
RightArm  -1.79185 -20.3471 32.5815
RightForeArm  17.685 12.1866 6.48069
RightHand  -0.161483 -3.00777 -7.2856
LeftUpLeg  13.2019 4.89458 -4.91378
LeftLeg  9.70811 7.9641 -4.24413
LeftFoot  -19.921 0.566064 5.96604
LeftToes  1.76439e-010 -1.07097e-011 2.32476e-011
250
root  20.9962 38.7014 -33.557 -2.61163 -81.2159 -1.24568
RightUpLeg  -19.4959 -7.39357 -5.39387
RightLeg  -5.0169 -8.40329 6.29103
RightFoot  3.51585 -1.04975 8.21249
RightToes  -5.8209e-011 0 -3.6325e-017
Spine  8.20731 -2.5645 -5.27473
Spine1  6.03868 -4.11409 5.01035
HEad  49.358 5.54024 -176.06
LeftShoulder1  7.68944 -11.1546 -45.73
LeftArm  -1.97807 -9.4612 -29.3713
LeftForeArm  34.6018 -41.1626 -7.5383
LeftHand  -0.244104 0.0205437 5.32207
RightShoulder  5.27782 8.28618 38.6911
RightArm  -4.93997 -20.1982 31.6358
RightForeArm  17.7052 10.9692 6.23634
RightHand  -0.1888 -2.69004 -7.66836
LeftUpLeg  15.8164 5.87205 -3.76115
LeftLeg  10.6011 5.08013 -4.46984
LeftFoot  -21.3546 0.529496 4.55975
LeftToes  1.76439e-010 -1.07097e-011 2.32476e-011
251
root  19.3099 38.5156 -33.6216 -1.3465 -79.9951 -2.40268
RightUpLeg  -19.88 -7.14354 -4.35179
RightLeg  -1.89203 -13.1388 6.08554
RightFoot  4.53773 -0.738843 5.55448
RightToes  -5.8209e-011 0 -3.6325e-017
Spine  7.95325 -2.83237 -5.2151
Spine1  6.23094 -4.79629 6.33692
HEad  49.5885 5.34098 -176.613
LeftShoulder1  7.67793 -11.1512 -45.6699
LeftArm  -2.75686 -9.56942 -29.1978
LeftForeArm  34.0834 -40.1137 -7.25698
LeftHand  -0.244104 0.0205437 5.32207
RightShoulder  5.34555 8.41637 38.7673
RightArm  -7.24808 -19.9247 30.779
RightForeArm  16.6399 10.0065 5.99194
RightHand  -0.243179 -2.12431 -8.36485
LeftUpLeg  18.1207 7.36542 -1.94518
LeftLeg  11.5114 1.85365 -4.05715
LeftFoot  -21.349 0.425385 3.40185
LeftToes  1.76439e-010 -1.07097e-011 2.32476e-011
252
root  17.4603 38.3843 -33.6248 2.91486 -78.941 -6.46471
RightUpLeg  -21.2903 -8.61379 -1.9806
RightLeg  5.31813 -13.6531 4.14693
RightFoot  6.73368 -0.122954 1.1035
RightToes  -5.8209e-011 0 -3.6325e-017
Spine  6.83976 -3.18171 -3.42787
Spine1  6.7018 -5.14357 6.42012
HEad  49.5695 5.37038 -177.349
LeftShoulder1  7.70164 -11.1437 -45.84
LeftArm  -3.24479 -8.42574 -29.1173
LeftForeArm  33.1443 -38.4945 -6.84709
LeftHand  -0.244104 0.0205437 5.32207
RightShoulder  5.42484 8.53775 38.9647
RightArm  -8.45373 -19.6869 29.8759
RightForeArm  15.2016 8.9497 5.88613
RightHand  -0.307854 -1.58021 -9.23814
LeftUpLeg  20.044 9.52896 0.768728
LeftLeg  13.2722 -1.92471 -3.15754
LeftFoot  -20.7897 0.206969 1.02405
LeftToes  1.76439e-010 -1.07097e-011 2.32476e-011
253
root  15.4991 38.3528 -33.5727 11.0012 -78.6848 -14.5306
RightUpLeg  -22.818 -13.2354 2.87624
RightLeg  12.2479 -7.56876 1.47163
RightFoot  8.25372 0.657704 -3.52521
RightToes  -5.8209e-011 0 -3.6325e-017
Spine  5.52132 -3.16061 0.480175
Spine1  6.96898 -4.68031 5.23553
HEad  48.7415 5.74024 -178.074
LeftShoulder1  7.76469 -11.0933 -46.3907
LeftArm  -3.14152 -5.71071 -29.0748
LeftForeArm  31.9545 -36.5828 -6.39199
LeftHand  -0.244104 0.0205437 5.32207
RightShoulder  5.5317 8.62763 39.4859
RightArm  -8.72063 -19.3941 28.7651
RightForeArm  14.8602 7.46133 5.78257
RightHand  -0.333899 -1.41612 -9.6406
LeftUpLeg  21.305 11.5658 4.24848
LeftLeg  16.3416 -5.23692 -2.29607
LeftFoot  -18.752 -0.12153 -3.8209
LeftToes  1.76439e-010 -1.07097e-011 2.32476e-011
254
root  13.5611 38.4289 -33.5293 20.2018 -78.856 -23.8643
RightUpLeg  -23.4761 -15.3613 6.83618
RightLeg  17.7308 -3.26715 -0.468223
RightFoot  6.69461 1.0613 -6.39773
RightToes  -5.8209e-011 0 -3.6325e-017
Spine  4.72251 -2.7221 4.78572
Spine1  6.88913 -3.6396 3.75462
HEad  47.5384 6.17533 -178.256
LeftShoulder1  7.83469 -11.0256 -47.0415
LeftArm  -2.96018 -1.71846 -29.2463
LeftForeArm  30.6995 -34.3676 -5.88678
LeftHand  -0.244104 0.0205437 5.32207
RightShoulder  5.67248 8.7589 40.1128
RightArm  -8.74332 -18.5972 27.9355
RightForeArm  16.2656 5.61004 5.49997
RightHand  -0.298165 -1.70905 -9.22295
LeftUpLeg  19.9675 10.5763 6.40768
LeftLeg  23 -4.74064 -1.71647
LeftFoot  -12.5345 -0.00344678 -8.93312
LeftToes  1.76439e-010 -1.07097e-011 2.32476e-011
